<svg xmlns="http://www.w3.org/2000/svg" aria-hidden="true" style="position:absolute;width:0;height:0;overflow:hidden">
    <defs>
        <symbol id="icon-Arrow-1" viewBox="0 0 64 32">
            <path d="M63.375 17.509a2.134 2.134 0 0 0 0-3.017L49.798.916a2.134 2.134 0 0 0-3.017 3.017l12.068 12.068-12.068 12.068a2.134 2.134 0 0 0 3.017 3.017L63.375 17.51zM0 18.133h61.867v-4.267H0v4.267z"/>
        </symbol>
        <symbol id="icon-behance" viewBox="0 0 33 32">
            <path fill="#fff" d="M10.917 6a6.002 6.002 0 0 1 5.929 6.923 6.006 6.006 0 0 1-1.456 3.076 5.998 5.998 0 0 1-4.472 9.999H5.585a3.333 3.333 0 0 1-3.333-3.333V9.332a3.333 3.333 0 0 1 3.333-3.333h5.333zm12.666 5.333c3.924 0 6.667 3.543 6.667 7.333a1.998 1.998 0 0 1-1.808 1.991l-.192.009h-.661a2.001 2.001 0 0 1 1.946 2.444 1.998 1.998 0 0 1-.588 1.02c-1.195 1.111-2.915 1.869-5.364 1.869-3.924 0-6.667-3.543-6.667-7.333s2.743-7.333 6.667-7.333zM10.917 18H6.25v4h4.667a2 2 0 0 0 .191-3.99l-.192-.009zm16.661 2.667H21.45c.529.86 1.371 1.333 2.133 1.333 1.551 0 2.264-.449 2.636-.797a2.004 2.004 0 0 1 1.359-.536zm-3.996-5.334c-.763 0-1.604.473-2.133 1.333h4.267c-.529-.86-1.371-1.333-2.133-1.333zM10.917 10H6.25v4h4.667a2 2 0 0 0 0-4zm14.666-2.667a2 2 0 0 1 0 4h-4a2 2 0 0 1 0-4h4z" style="fill:var(--color1, #fff)"/>
        </symbol>
        <symbol id="icon-BodiesAround" viewBox="0 0 52 32">
            <path fill="#ffb6b6" d="m42.256 30.601-.536-.126.324-2.473.791.186-.579 2.413z" style="fill:var(--color2, #ffb6b6)"/>
            <path fill="#2f2e41" d="M40.14 31.239c-.023.09.022.18.1.2l1.057.275s.213-.392.684-.462l-.126.607.546.142.184-.98s.279-.477.045-.819.001-.242.001-.242l.035-.627-.85-.117-.249.934-.641.825-.662.138a.17.17 0 0 0-.125.127z" style="fill:var(--color3, #2f2e41)"/>
            <path fill="#ffb6b6" d="m47.395 30.017-.489.253-1.361-2.089.721-.374 1.128 2.21z" style="fill:var(--color2, #ffb6b6)"/>
            <path fill="#2f2e41" d="M46.202 31.88c.041.084.133.122.206.087l.982-.48s-.093-.436.219-.796l.298.543.506-.248-.498-.864s-.098-.544-.499-.651-.156-.184-.156-.184l-.381-.499-.721.464.418.871.049 1.044-.413.536a.172.172 0 0 0-.012.178z" style="fill:var(--color3, #2f2e41)"/>
            <path fill="#fff" d="M18.723 20.833h14.208a.324.324 0 0 0 .324-.324V.385a.324.324 0 0 0-.324-.324H18.723a.324.324 0 0 0-.324.324v20.124c0 .179.145.324.324.324z" style="fill:var(--color1, #fff)"/>
            <path fill="#e6e6e6" d="M33.316 20.893H18.339V0h14.977v20.893zm-14.856-.121h14.735V.121H18.46v20.651z" style="fill:var(--color4, #e6e6e6)"/>
            <path fill="#e6e6e6" d="M29.95 3.347c.058 0 .104.047.104.104v.209a.104.104 0 0 1-.104.104h-8.245a.104.104 0 0 1-.104-.104v-.209c0-.058.047-.104.104-.104h8.245zM29.95 4.339c.058 0 .104.047.104.104v.209a.104.104 0 0 1-.104.104h-8.245a.104.104 0 0 1-.104-.104v-.209c0-.058.047-.104.104-.104h8.245z" style="fill:var(--color4, #e6e6e6)"/>
            <path fill="#ffea00" d="M29.95 5.332c.058 0 .104.047.104.104v.209a.104.104 0 0 1-.104.104h-8.245a.104.104 0 0 1-.104-.104v-.209c0-.058.047-.104.104-.104h8.245z" style="fill:var(--color5, #ffea00)"/>
            <path fill="#2f2e41" d="M45.127 7.936h2.739a.79.79 0 0 1 .08-.373c.002.129.03.255.083.373h.124c.19 0 .345-.155.345-.345V5.81c0-.872-.745-2.18-1.555-1.633-.026-.001-.437-.183-.463-.183-.712.001-.957.644-1.172 1.324-.245-.113-.414.359-.536 1.189-.036.242-.067.515-.096.813a.474.474 0 0 0 .451.617z" style="fill:var(--color3, #2f2e41)"/>
            <path fill="#ffb6b6" d="M39.752 18.12c-.136.322-.08.653.125.74s.481-.105.617-.427a.876.876 0 0 0 .072-.407l.558-1.372-.649-.248-.482 1.379a.872.872 0 0 0-.241.335z" style="fill:var(--color2, #ffb6b6)"/>
            <path fill="#ffea00" d="m45.753 7.333 1.309.274-.201.603.402 4.612-.669 1.485-4.083-.335 1.004-2.01s-.402-1.675.134-2.01 1.406-2.01 1.406-2.01l.699-.609z" style="fill:var(--color5, #ffea00)"/>
            <path fill="#2f2e41" d="m46.974 7.873 1.16.47-.402 5.895.87 5.092-2.811.469s.335-11.255.535-11.456.647-.47.647-.47zM44.702 8.609s-.755-.478-1.162-.124-3.547 8.907-3.547 8.907l.847.368 1.942-4.075 1.921-5.076z" style="fill:var(--color3, #2f2e41)"/>
            <path fill="#2f2e41" d="m42.541 23.02-.766 5.891 1.071.067s.557-1.521 1.192-3.312a240.777 240.777 0 0 0 .848-2.428c.347-1.014.652-1.937.826-2.54.03-.106.057-.202.079-.286.468-1.801.736-6.507.736-6.507l-3.882-.335-.041.052-.829 1.036.039.219 1.032 5.794-.305 2.35z" style="fill:var(--color3, #2f2e41)"/>
            <path fill="#2f2e41" d="m42.846 20.671-.305 2.35 1.373 2.419.124.226 1.89 3.438.934-.53s-1.215-2.794-1.976-5.336a22.776 22.776 0 0 1-.233-.825c-.207-.789.132-2.228-.001-2.624-.448-1.339-1.907-4.016-2.584-5.229l-.254.318 1.032 5.794z" style="fill:var(--color3, #2f2e41)"/>
            <path fill="#2f2e41" d="m45.071 7.891-1.355.52-3.547 10.384 2.142.335 1.004-6.03 1.757-5.21z" style="fill:var(--color3, #2f2e41)"/>
            <path fill="#ffb6b6" d="M48.461 19.1c.034.348.242.612.463.59s.373-.322.338-.67a.882.882 0 0 0-.131-.392l-.165-1.473-.689.092.235 1.442a.869.869 0 0 0-.052.41z" style="fill:var(--color2, #ffb6b6)"/>
            <path fill="#2f2e41" d="M47.665 8.344s.87-.201 1.138.268.402 9.58.402 9.58l-.921.067-.485-4.489-.134-5.427z" style="fill:var(--color3, #2f2e41)"/>
            <path fill="#ffb6b6" d="M46.554 7.17c.768 0 1.391-.623 1.391-1.393a1.392 1.392 0 1 0-2.782 0c0 .77.623 1.393 1.391 1.393z" style="fill:var(--color2, #ffb6b6)"/>
            <path fill="#2f2e41" d="M47.113 7.936h.687a.065.065 0 0 0 .066-.062V7.87c.004-.073.106-.085.129-.016.01.028.02.055.033.082h.068V5.789a.667.667 0 0 0-1.317-.14s-.467.573-.192.896-.125.585-.125.585a.667.667 0 0 0 .651.807z" style="fill:var(--color3, #2f2e41)"/>
            <path fill="#f2f2f2" d="M24.331 10.437a.324.324 0 0 0 .079-.461l-.505-.696a.363.363 0 0 0-.549-.047c-.855.458-1.316 1.126-.804 1.917 0 .132.01.264.029.394a.363.363 0 0 0 .474.302l.826-.269a.325.325 0 0 0 .206-.422.589.589 0 0 1 .245-.72z" style="fill:var(--color6, #f2f2f2)"/>
            <path fill="#e6e6e6" d="M26.292 12.489a.409.409 0 0 0-.441.412v.713a.364.364 0 0 0 .419.36c1.158.143 1.949-.361 1.997-1.467a.364.364 0 0 0-.215-.506l-.692-.225a.409.409 0 0 0-.529.325c-.038.224-.185.423-.541.388z" style="fill:var(--color4, #e6e6e6)"/>
            <path fill="#3f3d56" d="M22.015 13.187c.24 1.427 1.491 1.968 2.795 2.053a.51.51 0 0 0 .587-.504v-1.193a.602.602 0 0 0-.607-.597c-.322-.003-.532-.156-.619-.436a.605.605 0 0 0-.768-.385l-1.088.354a.51.51 0 0 0-.3.708z" style="fill:var(--color7, #3f3d56)"/>
            <path fill="#ffea00" d="M28.718 8.254a.509.509 0 0 0-.768.064l-.967 1.332a.326.326 0 0 0 .14.491c.453.195.405.632.258.9a.235.235 0 0 0 .13.341l1.629.53a.51.51 0 0 0 .661-.412c.028-.187.042-.375.042-.564.276-1.028-.106-1.998-1.125-2.682z" style="fill:var(--color5, #ffea00)"/>
            <path fill="#e6e6e6" d="M25.92 9.798c.18.102.408.053.53-.115l.324-.446a.365.365 0 0 0-.125-.536c-.762-.689-1.664-.732-2.429-.004a.367.367 0 0 0-.132.54l.378.521c.13.179.382.226.561.096.26-.189.638-.2.893-.056z" style="fill:var(--color4, #e6e6e6)"/>
            <path fill="#ffea00" d="M51.559 31.894H0v.102h51.559v-.102z" style="fill:var(--color5, #ffea00)"/>
            <path fill="#3f3d56" d="M21.653 18.786c.029-.123.166-.164.277-.159.071.005.141.016.209.033.072.016.143.035.213.055.13.037.258.082.39.111.111.03.227.032.338.005a.321.321 0 0 0 .223-.219.22.22 0 0 0-.109-.261.181.181 0 0 0-.247.071l-.002.004a.274.274 0 0 0 .08.306.853.853 0 0 0 .148.113.55.55 0 0 0 .178.08.256.256 0 0 0 .282-.11.186.186 0 0 0 .021-.073c.003-.035-.051-.034-.054 0-.009.099-.125.146-.212.135a.417.417 0 0 1-.164-.064.926.926 0 0 1-.136-.096c-.074-.064-.143-.169-.093-.268a.134.134 0 0 1 .209-.028c.077.063.064.178.013.253a.317.317 0 0 1-.255.122.984.984 0 0 1-.309-.049c-.125-.035-.248-.075-.373-.108a2.67 2.67 0 0 0-.215-.049.693.693 0 0 0-.208-.014.284.284 0 0 0-.256.196c-.008.034.044.048.052.015z" style="fill:var(--color7, #3f3d56)"/>
            <path fill="#e6e6e6" d="M23.793 17.376c.016 0 .029.047.029.105v.209c0 .058-.013.105-.029.105h-2.331c-.016 0-.029-.047-.029-.105v-.209c0-.058.013-.105.029-.105h2.331zM30.025 17.376c.016 0 .029.047.029.105v.209c0 .058-.013.105-.029.105h-2.331c-.016 0-.029-.047-.029-.105v-.209c0-.058.013-.105.029-.105h2.331z" style="fill:var(--color4, #e6e6e6)"/>
            <path fill="#ffea00" d="m28.987 18.553-.694.23a.526.526 0 0 1-.225.041.153.153 0 0 1-.13-.092.135.135 0 0 1 .057-.136c.11-.084.25.002.328.089.096.106.15.244.24.355.08.1.181.181.296.236.23.114.505.091.712-.061.244-.188.269-.515.27-.799a.05.05 0 0 0-.051-.048.05.05 0 0 0-.048.048c-.001.258-.016.574-.251.736-.225.155-.521.114-.728-.051a1.173 1.173 0 0 1-.262-.336c-.074-.121-.166-.238-.305-.285a.275.275 0 0 0-.329.115.21.21 0 0 0 .097.299c.162.077.346-.013.502-.065l.547-.181c.06-.02.034-.116-.026-.095z" style="fill:var(--color5, #ffea00)"/>
            <path fill="#e6e6e6" d="M8.43 30.077c-.006-.005-.011-.008-.014-.008a.207.207 0 0 0-.18.106l-.813 1.511c-.019.033-.028.069-.027.105s.01.072.029.104c.038.065 1.833.088 1.833.088.075-.001.283-.93-.829-1.906z" style="fill:var(--color4, #e6e6e6)"/>
            <path fill="#ffb6b6" d="m5.324 31.617.617-.005.273-2.384-.91.008.021 2.381z" style="fill:var(--color2, #ffb6b6)"/>
            <path fill="#2f2e41" d="M7.437 31.585a.535.535 0 0 1 .031.174.209.209 0 0 1-.207.211l-1.91.017a.143.143 0 0 1-.144-.142l-.001-.08s-.097-.238.095-.535c0 0 .244.229.602-.136l.105-.194.776.558.428.049c.094.011.176-.003.225.077z" style="fill:var(--color3, #2f2e41)"/>
            <path fill="#ffb6b6" d="m7.671 29.559.586.193 1.021-2.171-.865-.284-.742 2.263z" style="fill:var(--color2, #ffb6b6)"/>
            <path fill="#2f2e41" d="M9.683 30.206a.528.528 0 0 1-.027.175.21.21 0 0 1-.264.134l-1.815-.597a.142.142 0 0 1-.091-.18l.025-.076s-.015-.257.262-.476c0 0 .158.295.614.064l.161-.15.557.777.39.184c.085.04.168.053.189.145zM8.498 15.736l1.232 3.955 1.445 3.554-2.19 5.115-1.218-.475 1.091-4.427-1.864-3.305-.881 9.922-1.072-.128-1.393-11.885.219-2.585 4.632.259z" style="fill:var(--color3, #2f2e41)"/>
            <path fill="#e6e6e6" d="m7.237 6.731-1.332-.322-.367.873s-1.799.304-1.891 1.683c0 0-.359 1.81-.129 2.315s.795 2.293.795 2.293-.896 2.227-.666 2.365 5.15.64 5.15.364.056-3.552.056-3.552L8.66 7.787l-1.239-.459-.184-.598z" style="fill:var(--color4, #e6e6e6)"/>
            <path fill="#ffb6b6" d="M7.012 6.509a1.342 1.342 0 1 0 0-2.685 1.342 1.342 0 0 0 0 2.685z" style="fill:var(--color2, #ffb6b6)"/>
            <path fill="#2f2e41" d="M6.124 5.366c.107.059.006.339.072.363.077.028.359-.293.363-.653.001-.109-.024-.161 0-.29.031-.169.128-.368.218-.363.053.003.105.078.109.145.005.094-.086.131-.073.181.025.096.408.163.544 0 .107-.128.025-.351.072-.363.035-.008.073.115.218.254.054.052.135.13.181.109.066-.031.018-.251.036-.254.015-.002.025.152.109.29.108.178.331.314.435.254.064-.037.069-.14.073-.218.008-.164.247-.543.185-.719-.126-.358-.341-.106-.439-.225-.132-.162-.25-.075-.471-.254-.216-.175-.218-.351-.363-.363-.13-.01-.177.129-.326.109-.127-.017-.155-.125-.254-.109-.091.014-.097.109-.218.145-.077.023-.094-.01-.181 0-.182.021-.304.187-.326.218-.088.12-.054.17-.145.29-.079.104-.253.06-.319.112-.214.169-.306.482-.308.838-.001.249.031.375.104.689.055.239.31.547.45.684.038.037.143.14.218.109.07-.03.072-.164.073-.181 0-.061-.016-.136-.145-.327-.136-.2-.19-.223-.181-.29.014-.119.205-.228.29-.181z" style="fill:var(--color3, #2f2e41)"/>
            <path fill="#ffb6b6" d="M2.329 18.762c-.047.391.117.731.365.761s.487-.263.534-.653a.984.984 0 0 0-.049-.462l.177-1.657-.779-.067-.092 1.641a.993.993 0 0 0-.157.438z" style="fill:var(--color2, #ffb6b6)"/>
            <path fill="#e6e6e6" d="M4.572 7.756s-.403.006-.671.528c-.142.277-1.065 5.25-1.065 5.25l-.259 1.573.133.26c-.212.324-.27.726-.159 1.097l-.253 1.537 1.192.006.93-4.026.782-2.335-.629-3.891z" style="fill:var(--color4, #e6e6e6)"/>
            <path fill="#ffb6b6" d="M10.66 18.701c.047.391-.117.731-.365.761s-.487-.263-.534-.653a.984.984 0 0 1 .049-.462l-.177-1.657.779-.067.092 1.641a.993.993 0 0 1 .157.438z" style="fill:var(--color2, #ffb6b6)"/>
            <path fill="#e6e6e6" d="M8.418 7.695s.403.006.671.528c.142.277 1.065 5.25 1.065 5.25l.259 1.573-.133.26c.212.325.27.726.16 1.097l.253 1.537-1.192.006-.93-4.025-.782-2.335.629-3.891z" style="fill:var(--color4, #e6e6e6)"/>
            <path fill="#2f2e41" d="M44.882 5.571c.049.081.312-.216.715-.248.103-.009.334.385.6.391.176.004.284.002.501 0 .256-.003.326-.009.376-.071.096-.122.017-.338.063-.356.038-.015.137.119.188.285.106.348-.276.832-.313 1.28-.04.483.354-.442.313 0-.046.498-.212.46-.21.64.001.027.007.05.023.071.013.018.026.026.25.071.268.055.403.082.438.071.092-.027.185-.177.25-.285.108-.176.031.001 0-.213-.03-.208-.124-.235-.125-.427-.001-.242.147-.315.251-.569.191-.47.004-1.013-.063-1.209a3.375 3.375 0 0 0-.193-.41 1.231 1.231 0 0 0-.324-.402 1.511 1.511 0 0 0-.681-.306.952.952 0 0 0-.411.026l-.349.095c-.147.04-.285.113-.407.214-.114 0-.212.084-.251.205-.004.013-.008.02-.011.019-.629-.223-.629.438-.622.852a.726.726 0 0 1-.005.11v.002c-.013.082-.016.142-.002.164z" style="fill:var(--color3, #2f2e41)"/>
            <path fill="#3f3d56" d="M36.705 9.225h-6.622v.121h6.622v-.121zM38.038 10.072a.85.85 0 0 1 0-1.698.85.85 0 0 1 0 1.698zm0-1.577a.728.728 0 1 0 .002 1.456.728.728 0 0 0-.002-1.456z" style="fill:var(--color7, #3f3d56)"/>
            <path fill="#ffea00" d="M38.038 9.648a.424.424 0 1 0 0-.848.424.424 0 0 0 0 .848z" style="fill:var(--color5, #ffea00)"/>
            <path fill="#3f3d56" d="M21.578 13.712h-6.622v.121h6.622v-.121zM12.774 13.71c0-.468.38-.849.848-.849a.85.85 0 0 1 0 1.698.85.85 0 0 1-.848-.849zm.122 0a.728.728 0 1 0 1.452 0 .728.728 0 0 0-1.452 0z" style="fill:var(--color7, #3f3d56)"/>
            <path fill="#ffea00" d="M13.623 14.135a.424.424 0 1 0 0-.848.424.424 0 0 0 0 .848z" style="fill:var(--color5, #ffea00)"/>
        </symbol>
        <symbol id="icon-bodySkills" viewBox="0 0 38 32">
            <path fill="#f2f2f2" d="m33.154 31.875.001-.037a4.305 4.305 0 0 1 1.615-3.247c.276-.218.578-.399.9-.541l.031-.014.005.033c.062.395.161.798.207.977l.308-1.2.034-.01a.818.818 0 0 1 .874.279.825.825 0 0 1 .087.928c-.072.134-.142.273-.211.408-.234.463-.477.942-.83 1.314a2.607 2.607 0 0 1-2.105.784l-.915.326z" style="fill:var(--color6, #f2f2f2)"/>
            <path fill="#ffb6b6" d="M29.314 31.32h-.536l-.255-2.064h.791v2.064z" style="fill:var(--color2, #ffb6b6)"/>
            <path fill="#2f2e41" d="M29.333 31.879h-1.648v-.021a.641.641 0 0 1 .642-.641l.301-.228.562.228h.144v.661z" style="fill:var(--color3, #2f2e41)"/>
            <path fill="#ffb6b6" d="m34.862 29.813-.423.328-1.469-1.474.625-.484 1.267 1.631z" style="fill:var(--color2, #ffb6b6)"/>
            <path fill="#2f2e41" d="m35.219 30.242-1.302 1.009-.013-.016a.642.642 0 0 1 .113-.899l.098-.364.584-.164.114-.088.406.522zM32.544 19.827s-.037.559-.083 1.358c-.008.131.037.273.029.416-.005.095-.063.186-.068.285-.006.104.074.196.068.304-.006.105-.097.226-.102.333-.059 1.158-.273 2.545-.059 2.932.106.191 1.716 2.837 1.716 2.837s-.751 1.124-.965.749c-.283-.495-2.466-2.81-2.466-3.253s-.505-3.752-.505-3.752l-.352 1.959-.161.388.051.228-.104.308-.006.304-.102.565s.306 4.402.133 4.525-1.008.344-1.107.123c-.098-.221-.474-4.595-.474-4.595s-.103-2.004-.215-3.867c-.006-.108-.083-.239-.088-.345-.007-.124.041-.284.035-.404-.007-.138-.068-.234-.074-.366-.046-1.018-.053-1.82.029-1.942.246-.368.468-.663.468-.663s3.517-.86 4.403.245v1.326z" style="fill:var(--color3, #2f2e41)"/>
            <path fill="#e6e6e6" d="m29.38 9.288.848-.047.639.348 1.777 10.049s-1.817.838-2.943.517-2.311-.303-2.311-.303l.864-9.6.697-.642.429-.321z" style="fill:var(--color4, #e6e6e6)"/>
            <path fill="#3f3d56" d="m30.795 9.501 1.313.535a.887.887 0 0 1 .836.731l-.087 2.588-.473 1.231.338 2.805-.177.353.153.361c-.224.363-.179.84-.045 1.352h-.161l-.322-.054s-.708.245-.853-.636c-.38-2.308-.594-1.291-.594-1.291l-.187-7.161.261-.816zM29.005 9.502l-1.226 1.284a.887.887 0 0 0-.836.731l.507 3.98-.238 1.527.131.346-.095.391.148.358-.107.482.161.696.804-.214-.006-.571.214-7.762.542-1.249z" style="fill:var(--color7, #3f3d56)"/>
            <path fill="#ffb6b6" d="m24.916 16.1-1.67 1.21a.362.362 0 0 0-.286.562.372.372 0 0 0 .326.165.363.363 0 0 0 .306-.199l2.271-1.211-.945-.528z" style="fill:var(--color2, #ffb6b6)"/>
            <path fill="#3f3d56" d="M27.236 11.001c-.317.146-1.102 3.889-1.332 3.969s-.142.067-.175.134c-.032.066-.04.363-.261.398s-1.388 1.097-1.388 1.097l.296.985s2.247-1.281 2.866-1.991.953-4.359.953-4.359l.063-.364s-.705-.014-1.022.132z" style="fill:var(--color7, #3f3d56)"/>
            <path fill="#ffb6b6" d="m32.274 15.606-1.489 1.427a.36.36 0 0 0-.276.238.364.364 0 0 0 .584.394.372.372 0 0 0 .106-.156l2.084-1.51-1.009-.393z" style="fill:var(--color2, #ffb6b6)"/>
            <path fill="#3f3d56" d="M32.49 11.322c-.294.188.824 2.919.607 3.029s-.132.086-.155.156c-.023.07.01.365-.204.43s-1.225 1.277-1.225 1.277l.428.935s2.05-1.577 2.566-2.364.18-1.054.18-1.054c-.64-1.358-1.24-3.573-2.145-3.426 0 0 .241.829-.054 1.017z" style="fill:var(--color7, #3f3d56)"/>
            <path fill="#ffb6b6" d="M29.562 9.076a1.435 1.435 0 1 0 0-2.87 1.435 1.435 0 1 0 0 2.87z" style="fill:var(--color2, #ffb6b6)"/>
            <path fill="#2f2e41" d="M31.018 8.566s-.317.087-.501.135c.01-.137.069-.265.099-.399s.024-.291-.076-.386c-.1-.095-.307-.058-.323.078l-.253-.541c-.241.496-.735.073-1.273.199-.275.065-.619.037-.764-.205a.913.913 0 0 0 .203-.243.867.867 0 0 1-.258.033.549.549 0 0 1 .239-.436c.077-.051-.114-.23-.047-.294.139-.129.232-.041.313-.212a.628.628 0 0 1 .569-.347c.235.006.657.003.748.22.291-.19.696-.136.98.063.236.165.505.664.565.946s-.071 1.143-.221 1.388z" style="fill:var(--color3, #2f2e41)"/>
            <path fill="#ffea00" d="M13.216 5.407H4.013a.652.652 0 0 1-.66-.599.634.634 0 0 1 .172-.482.645.645 0 0 1 .47-.204h9.222a.646.646 0 0 1 .643.642.644.644 0 0 1-.643.642z" style="fill:var(--color5, #ffea00)"/>
            <path fill="#e6e6e6" d="M18.509 6.451H3.377a.055.055 0 0 1-.054-.054.055.055 0 0 1 .054-.054h15.132a.055.055 0 0 1 .054.054.055.055 0 0 1-.054.054z" style="fill:var(--color4, #e6e6e6)"/>
            <path fill="#3f3d56" d="M17.88 5.434H3.994a.673.673 0 0 1-.67-.669.67.67 0 0 1 .67-.669H17.88a.673.673 0 0 1 .67.669.67.67 0 0 1-.67.669zM3.994 4.202a.562.562 0 1 0 0 1.124H17.88a.56.56 0 0 0 .398-.959.567.567 0 0 0-.398-.165H3.994z" style="fill:var(--color7, #3f3d56)"/>
            <path fill="#ffea00" d="M9.088 10.439H4.014a.653.653 0 0 1-.66-.598.634.634 0 0 1 .172-.482.645.645 0 0 1 .47-.204h5.093a.646.646 0 0 1 .643.642.644.644 0 0 1-.643.642z" style="fill:var(--color5, #ffea00)"/>
            <path fill="#e6e6e6" d="M18.509 11.483H3.377a.055.055 0 0 1-.054-.054.055.055 0 0 1 .054-.054h15.132a.055.055 0 0 1 .054.054.055.055 0 0 1-.054.054z" style="fill:var(--color4, #e6e6e6)"/>
            <path fill="#3f3d56" d="M17.88 10.466H3.994a.669.669 0 1 1 0-1.338H17.88a.669.669 0 1 1 0 1.338zM3.994 9.234a.562.562 0 1 0 0 1.124H17.88a.56.56 0 0 0 .398-.959.567.567 0 0 0-.398-.165H3.994z" style="fill:var(--color7, #3f3d56)"/>
            <path fill="#ffea00" d="M15.897 15.471H4.014a.653.653 0 0 1-.66-.598.634.634 0 0 1 .172-.482.645.645 0 0 1 .47-.204h11.902a.646.646 0 0 1 .643.642.644.644 0 0 1-.643.642z" style="fill:var(--color5, #ffea00)"/>
            <path fill="#e6e6e6" d="M18.509 16.515H3.377a.055.055 0 0 1-.054-.054.055.055 0 0 1 .054-.054h15.132a.055.055 0 0 1 .054.054.055.055 0 0 1-.054.054z" style="fill:var(--color4, #e6e6e6)"/>
            <path fill="#3f3d56" d="M17.88 15.498H3.994a.669.669 0 1 1 0-1.338H17.88a.669.669 0 1 1 0 1.338zM3.994 14.266a.562.562 0 1 0 0 1.124H17.88a.56.56 0 0 0 .398-.959.567.567 0 0 0-.398-.165H3.994z" style="fill:var(--color7, #3f3d56)"/>
            <path fill="#ccc" d="M12.343 4.754h-.107V.63h7.756v.107h-7.648v4.017z" style="fill:var(--color8, #ccc)"/>
            <path fill="#ccc" d="M20.323 1.279a.64.64 0 1 0 .002-1.278.64.64 0 0 0-.002 1.278zM8.62 9.786h.107V7.428H.971v.107h7.648v2.251z" style="fill:var(--color8, #ccc)"/>
            <path fill="#ccc" d="M.64 8.078A.64.64 0 1 0 .642 6.8.64.64 0 0 0 .64 8.078zM15.881 15h-.107v2.947h6.576v-.107h-6.469V15z" style="fill:var(--color8, #ccc)"/>
            <path fill="#ccc" d="M22.682 18.576a.64.64 0 1 0 .001-1.279.64.64 0 0 0-.001 1.279z" style="fill:var(--color8, #ccc)"/>
            <path fill="#ffea00" d="M37.506 31.984 22.936 32a.064.064 0 0 1-.045-.019c-.006-.006-.011-.013-.014-.021s-.005-.016-.005-.024a.064.064 0 0 1 .019-.045c.006-.006.013-.011.021-.014s.016-.005.024-.005l14.57-.016c.017 0 .033.007.045.019s.019.028.019.045c0 .017-.007.033-.019.045s-.028.019-.045.019z" style="fill:var(--color5, #ffea00)"/>
            <path fill="#e6e6e6" d="M31.637 9.502a.239.239 0 0 0-.324-.077c.079-.109.019-.296-.104-.372-.14-.086-.317-.071-.48-.054l-1.338.14c-.154.016-.313.033-.45.105s-.25.213-.242.367a.764.764 0 0 0-.328-.044c-.11.017-.218.098-.23.208-.019.177.192.28.364.328l.958.271-.098.021a4.086 4.086 0 0 0 1.847-.267c.134-.053.271-.116.365-.226s.135-.277.062-.401z" style="fill:var(--color4, #e6e6e6)"/>
        </symbol>
                <symbol id="icon-Arrow-2" viewBox="0 0 16 32">
            <path fill="#fff8a6" d="M7.239 31.531a1.076 1.076 0 0 0 1.523 0l6.853-6.854a1.076 1.076 0 1 0-1.523-1.523L8 29.246l-6.092-6.092a1.076 1.076 0 1 0-1.523 1.523l6.854 6.854zM6.923 0v30.769h2.154V0H6.923z" style="fill:var(--color1, #fff8a6)"/>
        </symbol>
        <symbol id="icon-bodyWithPaper" viewBox="0 0 33 32">
        
            <path fill="#f2f2f2" d="M30.21 30.614c-.035.002-.07-.008-.1-.027s-.053-.047-.067-.079c-.014-.033-.017-.069-.009-.103s.026-.066.052-.09l.012-.047-.005-.011a.46.46 0 0 0-.429-.283.463.463 0 0 0-.427.287c-.14.337-.318.674-.362 1.031-.019.157-.011.317.024.472a5.494 5.494 0 0 1-.468-2.876 5.567 5.567 0 0 1 1.18-2.838c.266-.145.481-.368.616-.639.049-.097.084-.201.103-.309-.03.004-.113-.453-.09-.481-.042-.063-.117-.095-.162-.157-.227-.308-.54-.254-.703.164-.349.176-.352.468-.138.749.136.179.155.42.274.611l-.037.047a5.578 5.578 0 0 0-.585.926 2.329 2.329 0 0 0-.139-1.081c-.133-.321-.383-.591-.602-.869-.264-.333-.805-.188-.852.235l-.001.012c.033.018.065.038.096.059a.233.233 0 0 1 .029.366.245.245 0 0 1-.125.061l-.005.001c.012.118.032.234.061.348-.282 1.089.327 1.486 1.195 1.504l.057.029a5.736 5.736 0 0 0-.308 1.448c-.022.291-.021.584.004.875l-.002-.01a1.433 1.433 0 0 0-.489-.827c-.377-.309-.909-.423-1.315-.671a.265.265 0 0 0-.29-.001.272.272 0 0 0-.122.262l.002.011a1.585 1.585 0 0 1 .272.144.233.233 0 0 1-.096.426l-.005.001-.01.002c.103.247.249.474.429.672.176.951.933 1.041 1.743.764h.001c.089.386.218.761.384 1.121h1.372l.014-.046c-.127.008-.255 0-.38-.023l.305-.376.006-.007.155-.191a2.274 2.274 0 0 0-.067-.581zM27.923 18.421c.364-1.32 1.042-2.443 2.137-3.308a.3.3 0 0 1 .415-.09l2.5 1.613a.3.3 0 0 1 .09.415l-2.137 3.308a.3.3 0 0 1-.415.09l-2.5-1.613a.3.3 0 0 1-.09-.415z" style="fill:var(--color6, #f2f2f2)"/>
            <path fill="#fff" d="M28.761 17.545c.094-.697.671-1.41 1.374-2.127a.283.283 0 0 1 .389-.083l2.148 1.386a.278.278 0 0 1 .084.389l-1.902 2.944a.283.283 0 0 1-.389.083l-1.331-.859c-.279-.181-.475-.465-.546-.79s-.008-.665.172-.944z" style="fill:var(--color1, #fff)"/>
            <path fill="#f2f2f2" d="M28.952 20.388c-.317-1.331-.264-2.643.279-3.928a.3.3 0 0 1 .321-.279l2.968.21a.302.302 0 0 1 .279.321l-.279 3.928a.3.3 0 0 1-.321.279l-2.968-.21a.302.302 0 0 1-.279-.321z" style="fill:var(--color6, #f2f2f2)"/>
            <path fill="#fff" d="M29.264 19.218c-.254-.656-.092-1.558.179-2.525a.28.28 0 0 1 .301-.261l2.551.181c.074.005.144.04.193.096s.074.13.068.204l-.248 3.495a.28.28 0 0 1-.301.261l-1.58-.112a1.254 1.254 0 0 1-1.163-1.34z" style="fill:var(--color1, #fff)"/>
            <path fill="#ffb6b6" d="m29.208 12.169-1.272-4.703a.786.786 0 0 0-1.447-.176.785.785 0 0 0-.063.617l1.471 4.845.77 2.982a.689.689 0 0 0-.239.751.688.688 0 0 0 1.326-.353.686.686 0 0 0-.207-.358l-.339-3.606zM20.038 12.982l1.304-4.694a.784.784 0 0 0-.539-.963.786.786 0 0 0-.986.575l-1.205 4.918-.858 2.957a.683.683 0 0 0-.588.525.684.684 0 0 0 .293.732.685.685 0 0 0 1.033-.774l1.547-3.275zM27.5 31.015h-.831l-.395-3.203H27.5v3.203z" style="fill:var(--color2, #ffb6b6)"/>
            <path fill="#2f2e41" d="M27.529 31.881h-2.555v-.032a.996.996 0 0 1 .994-.994l.467-.354.871.354h.223v1.026z" style="fill:var(--color3, #2f2e41)"/>
            <path fill="#ffb6b6" d="m21.653 31.024-.818-.146.173-3.223 1.207.215-.563 3.153z" style="fill:var(--color2, #ffb6b6)"/>
            <path fill="#2f2e41" d="m21.53 31.881-2.516-.448.006-.032a.996.996 0 0 1 1.153-.804l.522-.266.795.501.22.039-.18 1.01zM21.734 16.288s-.774 1.096-.743 1.464.305.074.032.368c-.274.294-.433.097-.298.459s.189.128.134.363c-.055.235.055 9.214.055 9.214h1.424s.803-5.207.701-5.45-.099-.137.009-.396c.108-.258.21-.566.21-.566l1.126-3.166.868 4.457 1.022 5.297h1.365s.234-7.789.337-7.886-.02-.315-.15-.441-.104-.253-.062-.512c.042-.259.218-.403.212-.566s.377-2.745-.225-3.156c-.602-.411-6.016.516-6.016.516z" style="fill:var(--color3, #2f2e41)"/>
            <path fill="#ffea00" d="m26.495 5.37-1.593-.412-.744-1.025-1.766.217-.376 1.398-1.257.729c2.253.013 1.04 6.538 1.371 6.959.27.343-1.345 1.158-.839 1.677s.319.312.201.878c-.117.566-.974 1.165 0 1.159s6.848-.09 6.68-.761c-.168-.671-.165-.501-.418-.921s-.423-.186-.338-.806-.191-1.101.001-1.376c.296-.422-.002-3.465-.281-3.384l-.642-4.332z" style="fill:var(--color5, #ffea00)"/>
            <path fill="#ffea00" d="M26.041 5.391s1.165-.495 1.585.428c.134.295.247 1.035.356.871s.004.196.071.196c.06 0 .152-.097.083.238a.66.66 0 0 0 .193.61l-2.025 1.212-.263-3.555zM21.663 6.23s-1.165-.495-1.585.428c-.118.259-.089.836-.319.771s-.067.179-.097.264c-.034.094.114.362-.093.268s-.194.611-.194.611L21.4 9.784l.263-3.555z" style="fill:var(--color5, #ffea00)"/>
            <path fill="#2f2e41" d="m22.215 4.848-.336.587s-.923.503-.923.587.168.769 0 1.307c-.168.538.32 1.55.42 2.383.42 3.523-.828 4.802-1.091 7.045l2.663.777s.442-5.893.442-7.235-1.175-5.452-1.175-5.452zM24.649 4.597l.686.39s.898.198.909.281.014.967.249 1.48c.235.512.17.785.804 2.3.324.774 1.067 6.966 1.067 6.966l-2.542 1.111s-1.192-5.789-1.363-7.12.191-5.407.191-5.407z" style="fill:var(--color3, #2f2e41)"/>
            <path fill="#ffb6b6" d="M22.933 3.797a1.734 1.734 0 1 0 .001-3.469 1.734 1.734 0 0 0-.001 3.469z" style="fill:var(--color2, #ffb6b6)"/>
            <path fill="#2f2e41" d="M24.075 3.41c-.41-.32.151-1.73-.527-1.429 0 0-.828-.526-.994-.181-.193.401-.878.219-1.298.077.033-.077.057-.157.07-.24a2.03 2.03 0 0 1-.246.165.514.514 0 0 1-.151-.123.306.306 0 0 1-.039-.346c.07-.108.215-.141.3-.236.01-.013.016-.029.019-.046s.001-.033-.005-.049c-.01-.038-.012-.079-.004-.118s.023-.076.046-.108a.278.278 0 0 1 .201-.113.103.103 0 0 0 .046-.01c.071-.044.137-.096.196-.155-.099.005.022-.599 1-.484.246-.009.375.262.617.305.587-.335 1.112.148 1.367.611s.531 1.953-.598 2.48z" style="fill:var(--color3, #2f2e41)"/>
            <path fill="#fff" d="M16.671.923H1.116A1.117 1.117 0 0 0-.001 2.038v14.007a1.118 1.118 0 0 0 1.116 1.116H16.67a1.117 1.117 0 0 0 1.116-1.115V2.039A1.114 1.114 0 0 0 16.67.924z" style="fill:var(--color1, #fff)"/>
            <path fill="#ffea00" d="M9.564 4.138H7.902a.307.307 0 1 1 0-.614h1.662a.307.307 0 1 1 0 .614zM31.598 18.268h-1.662a.307.307 0 1 1 0-.614h1.662a.307.307 0 1 1 0 .614z" style="fill:var(--color5, #ffea00)"/>
            <path fill="#e6e6e6" d="M13.872 10.58H3.594a.307.307 0 1 1 0-.614h10.278a.307.307 0 1 1 0 .614zM13.872 12.609H3.594a.307.307 0 1 1 0-.614h10.278a.307.307 0 1 1 0 .614zM13.872 14.639H3.594a.307.307 0 1 1 0-.614h10.278a.307.307 0 1 1 0 .614zM11.771 5.06H5.694a1.117 1.117 0 0 0-1.116 1.115v1.829A1.118 1.118 0 0 0 5.694 9.12h6.077a1.117 1.117 0 0 0 1.116-1.115V6.176a1.114 1.114 0 0 0-1.116-1.115zm.993 2.944a.994.994 0 0 1-.993.993H7.409a2.707 2.707 0 0 1-2.707-2.705v-.116a.992.992 0 0 1 .993-.992h6.077a.994.994 0 0 1 .993.992v1.829z" style="fill:var(--color4, #e6e6e6)"/>
            <path fill="#e6e6e6" d="M8.801 7.75a1.046 1.046 0 1 0 0-2.091 1.046 1.046 0 0 0 0 2.091zM11.208 9.12l-4.684-.017 1.477-.369.184-.607 1.416-.008.424.6 1.168.303.015.098z" style="fill:var(--color4, #e6e6e6)"/>
            <path fill="#e6e6e6" d="M8.207 7.372c.225-.175-.082-.947.288-.782 0 0 .453-.288.544-.099.105.219.48.12.711.042a.546.546 0 0 1-.038-.131c.043.033.088.064.135.09a.257.257 0 0 0 .082-.068c.023-.026.037-.058.04-.092s-.003-.068-.019-.098c-.038-.059-.117-.077-.164-.129a.055.055 0 0 1-.007-.052c.006-.021.006-.043.002-.064s-.013-.042-.025-.059c-.013-.018-.029-.032-.048-.043s-.04-.017-.062-.018a.07.07 0 0 1-.025-.005.548.548 0 0 1-.107-.085c.054.002-.012-.328-.547-.265-.135-.005-.205.144-.338.167-.322-.184-.609.081-.748.334s-.291 1.069.327 1.357z" style="fill:var(--color4, #e6e6e6)"/>
            <path fill="#e6e6e6" d="M16.671.923H1.116A1.117 1.117 0 0 0-.001 2.038v14.007a1.118 1.118 0 0 0 1.116 1.116H16.67a1.117 1.117 0 0 0 1.116-1.115V2.039A1.114 1.114 0 0 0 16.67.924zm.993 15.122a.994.994 0 0 1-.993.993H8.137A8.014 8.014 0 0 1 .123 9.029V2.037a.992.992 0 0 1 .993-.992h15.555a.994.994 0 0 1 .993.992v14.007z" style="fill:var(--color4, #e6e6e6)"/>
        </symbol>
        <symbol id="icon-CircleattoValek" viewBox="0 0 33 32">
            <path fill="#ffea00" d="M24.179 26.293a13.038 13.038 0 0 1-5.074 1.022c-7.262 0-13.16-5.932-13.16-13.261 0-3.164 1.099-6.068 2.933-8.347a13.038 13.038 0 0 1 5.074-1.022c7.262 0 13.159 5.932 13.159 13.261 0 3.164-1.099 6.068-2.933 8.347zm1.523-.762a14.063 14.063 0 0 0 2.204-7.585c0-7.762-6.247-14.054-13.953-14.054-1.364 0-2.683.197-3.929.565A13.063 13.063 0 0 1 19.105.794c7.262 0 13.16 5.932 13.16 13.261a13.27 13.27 0 0 1-6.563 11.476zm-1.032 1.415a14.06 14.06 0 0 0 8.387-12.892C33.057 6.292 26.81 0 19.104 0c-4.307 0-8.158 1.965-10.717 5.054A14.06 14.06 0 0 0 0 17.946C0 25.708 6.247 32 13.953 32c4.307 0 8.158-1.965 10.717-5.054zm-1.636.597a13.853 13.853 0 0 1-3.929.565c-7.706 0-13.953-6.292-13.953-14.054 0-2.793.809-5.397 2.204-7.585A13.271 13.271 0 0 0 .793 17.945c0 7.329 5.897 13.261 13.16 13.261 3.52 0 6.719-1.393 9.081-3.663z" style="fill:var(--color5, #ffea00)"/>
        </symbol>
        <symbol id="icon-doubleQuote" viewBox="0 0 45 32">
            <path fill="#ffea00" stroke="#000" stroke-width=".653" d="m12.729 11.094-.148.432h3.606c2.441 0 4.431 2.004 4.431 4.473v11.2c0 2.469-1.991 4.473-4.431 4.473H5.164c-.427 0-.826-.219-1.058-.583C2.003 27.791.654 25.335.654 20.799c0-2.967.568-5.826 1.686-8.496l.001-.002c1.764-4.282 3.875-7.262 6.597-9.177C11.657 1.21 15.021.333 19.342.325h.003c.598 0 1.116.426 1.235 1.022a1.275 1.275 0 0 1-.751 1.427c-2.126.894-3.537 1.877-4.603 3.204-1.059 1.32-1.757 2.957-2.495 5.114zm23.79 0-.148.432h3.606c2.441 0 4.431 2.004 4.431 4.473v11.2c0 2.469-1.991 4.473-4.431 4.473H28.954c-.427 0-.826-.219-1.058-.583-2.103-3.298-3.452-5.754-3.452-10.29 0-2.967.568-5.826 1.686-8.496l.001-.002c1.764-4.282 3.875-7.262 6.597-9.177C35.447 1.21 38.811.333 43.132.325h.003c.598 0 1.116.426 1.235 1.022a1.275 1.275 0 0 1-.751 1.427c-2.126.894-3.537 1.877-4.603 3.204-1.059 1.32-1.757 2.957-2.495 5.114z" style="fill:var(--color5, #ffea00)"/>
        </symbol>
        <symbol id="icon-insta" viewBox="0 0 33 32">
            <path fill="none" stroke="#fff" stroke-width="2.462" d="M1.538 14.359c0-6.188 0-9.283 1.923-11.205s5.017-1.923 11.205-1.923h3.282c6.188 0 9.283 0 11.205 1.923s1.923 5.017 1.923 11.205v3.282c0 6.188 0 9.283-1.923 11.205s-5.017 1.923-11.205 1.923h-3.282c-6.188 0-9.283 0-11.205-1.923s-1.923-5.017-1.923-11.205v-3.282z" style="stroke:var(--color1, #fff)"/>
            <path fill="#fff" d="M23.692 11.077a2.462 2.462 0 1 0 0-4.925 2.462 2.462 0 0 0 0 4.925z" style="fill:var(--color1, #fff)"/>
            <path fill="none" stroke="#fff" stroke-width="2.462" d="M16.308 20.923a4.923 4.923 0 1 0 0-9.846 4.923 4.923 0 0 0 0 9.846z" style="stroke:var(--color1, #fff)"/>
        </symbol>
        <symbol id="icon-plus" viewBox="0 0 32 32">
            <path fill="#ffea00" d="M29.681 17.954H17.954v11.727h-3.909V17.954H2.318v-3.909h11.727V2.318h3.909v11.727h11.727v3.909z" style="fill:var(--color5, #ffea00)"/>
        </symbol>
        <symbol id="icon-Arrow-1" viewBox="0 0 64 32">
<path d="M63.375 17.509c0.833-0.833 0.833-2.184 0-3.017l-13.577-13.576c-0.833-0.833-2.184-0.833-3.017 0s-0.833 2.184 0 3.017l12.068 12.068-12.068 12.068c-0.833 0.833-0.833 2.184 0 3.017s2.184 0.833 3.017 0l13.577-13.576zM0 18.133h61.867v-4.267h-61.867v4.267z"></path>
</symbol>
        <symbol id="icon-vector" viewBox="0 0 52 32">
<path d="M23.334 28.887l-21.334-21.51 5.332-5.377 18.668 18.822 18.668-18.822 5.332 5.377-21.334 21.51c-0.707 0.713-1.666 1.113-2.666 1.113s-1.959-0.4-2.666-1.113z"></path>
</symbol>
        <symbol id="icon-telegram" viewBox="0 0 33 32">
            <path fill="#fff" d="M16.25 2.667C8.89 2.667 2.917 8.64 2.917 16S8.89 29.333 16.25 29.333 29.583 23.36 29.583 16 23.61 2.667 16.25 2.667zm6.187 9.066c-.2 2.107-1.067 7.227-1.507 9.587-.187 1-.56 1.333-.907 1.373-.773.067-1.36-.507-2.107-1-1.173-.773-1.84-1.253-2.973-2-1.32-.867-.467-1.347.293-2.12.2-.2 3.613-3.307 3.68-3.587a.264.264 0 0 0-.067-.24c-.08-.067-.187-.04-.28-.027-.12.027-1.987 1.267-5.627 3.72-.533.36-1.013.547-1.44.533-.48-.013-1.387-.267-2.067-.493-.84-.267-1.493-.413-1.44-.88.027-.24.36-.48.987-.733 3.893-1.693 6.48-2.813 7.773-3.347 3.707-1.547 4.467-1.813 4.973-1.813.107 0 .36.027.52.16a.534.534 0 0 1 .187.36c-.013.08.013.32 0 .507z" style="fill:var(--color1, #fff)"/>
        </symbol>
        <symbol id="icon-Valek" viewBox="0 0 32 32">
            <path fill="#d5b180" d="M16.286 20.889a5.193 5.193 0 1 0 0-10.388 5.193 5.193 0 1 0 0 10.388z" style="fill:var(--color9, #d5b180)"/>
            <path fill="#d5b180" d="m11.987 22.052 1.083-2.767 5.594-.842.601 6.125-5.654.12-1.624-2.636z" style="fill:var(--color9, #d5b180)"/>
            <path fill="#3c2714" d="M21.53 16.653c-.067.27-.204.913-.416.916-.174.002-.34-2.787-.167-3.248.199-.53-.325-1.201-.72-1.545-.71-.619-2.286.71-3.889.108-.043-.016-.034-.014-.54-.216-1.557-.621-1.639-.639-1.728-.648-.755-.075-1.676.543-2.052 1.296-.391.783-.064 1.455-.432 3.349-.043.221-.11.535-.216.54-.194.008-.383-1.025-.432-1.296-.207-1.135-.407-2.228 0-3.457.044-.134.318-.631.864-1.62.786-1.425 1.182-2.14 1.296-2.268.82-.922 2.312-1.763 3.565-1.404.633.181.52.473 1.296.756 1.384.505 2.587-.113 2.809.324.117.231-.211.422-.216.864-.008.759.951.978 1.512 1.728.302.404.818.408-.534 5.822z" style="fill:var(--color10, #3c2714)"/>
            <path fill="#ffea00" d="M27.965 26.623c-.209.235-.427.466-.651.691A15.895 15.895 0 0 1 16 32a15.876 15.876 0 0 1-11.126-4.502 17.666 17.666 0 0 1 .187-1.145c.502-2.509 7.111-5.144 7.283-5.213l.004-.001s.851 3.135 4.495 3.095c2.482-.027 2.001-3.095 2.001-3.095l.087.018c.717.152 5.695 1.246 7.659 2.738.598.455 1.028 1.423 1.337 2.578l.039.15z" style="fill:var(--color5, #ffea00)"/>
        </symbol>
        <symbol id="icon-whtsup" viewBox="0 0 33 32">
            <path fill="#fff" d="M22.547 18.747c-.341-.175-2.038-1.006-2.353-1.119-.316-.119-.547-.175-.775.175-.231.347-.887 1.119-1.094 1.353-.2.231-.403.259-.744.087-2.025-1.012-3.353-1.806-4.688-4.097-.353-.609.353-.566 1.012-1.881.113-.231.056-.428-.031-.603s-.775-1.869-1.063-2.559c-.278-.672-.566-.578-.775-.591-.2-.012-.428-.012-.659-.012s-.603.088-.919.428c-.316.347-1.206 1.181-1.206 2.875s1.234 3.334 1.403 3.566c.175.231 2.428 3.706 5.887 5.203 2.188.944 3.044 1.025 4.137.863.666-.1 2.038-.831 2.322-1.641.284-.806.284-1.497.2-1.641-.084-.153-.316-.241-.656-.406z" style="fill:var(--color1, #fff)"/>
            <path fill="#fff" d="M29.163 10.575a14.013 14.013 0 0 0-7.487-7.487 13.932 13.932 0 0 0-5.425-1.087h-.063a13.95 13.95 0 0 0-9.891 4.138 13.868 13.868 0 0 0-2.975 4.463 14.008 14.008 0 0 0-1.072 5.466 14.037 14.037 0 0 0 1.5 6.247v4.75c0 .794.644 1.438 1.438 1.438h4.753a14.037 14.037 0 0 0 6.247 1.5h.066c1.872 0 3.688-.363 5.397-1.072a13.9 13.9 0 0 0 4.463-2.975 13.869 13.869 0 0 0 3.016-4.438 13.95 13.95 0 0 0 1.122-5.453 13.96 13.96 0 0 0-1.087-5.488zm-4.722 13.687a11.564 11.564 0 0 1-8.191 3.363h-.053a11.664 11.664 0 0 1-5.409-1.359l-.262-.141h-4.4v-4.4l-.141-.262a11.664 11.664 0 0 1-1.359-5.409A11.552 11.552 0 0 1 7.988 7.81 11.535 11.535 0 0 1 16.2 4.376h.053c1.563 0 3.078.303 4.506.903a11.543 11.543 0 0 1 3.719 2.5 11.587 11.587 0 0 1 3.403 8.275 11.581 11.581 0 0 1-3.441 8.209z" style="fill:var(--color1, #fff)"/>
        </symbol>
        <symbol id="icon-antena" viewBox="0 0 30 32">
            <path d="m29.773 22.098-8.443-8.505.937-4.615c.242.094.499.144.758.146h.006a2.159 2.159 0 1 0-2.008-1.435l-4.96.605L7.972.161a.534.534 0 0 0-.377-.16.532.532 0 0 0-.373.155L5.709 1.66a.534.534 0 0 0 0 .754l.814.826a14.943 14.943 0 0 0 2.519 17.663.513.513 0 0 0 .146.098c-.034.18-.051.364-.052.547v6.187h-6.4a2.67 2.67 0 0 0-2.667 2.667v1.067c0 .295.239.533.533.533h24.533a.533.533 0 0 0 .533-.533v-1.067a2.67 2.67 0 0 0-2.667-2.667h-6.4v-2.742a15.09 15.09 0 0 0 3.049.32 14.854 14.854 0 0 0 7.04-1.783l.818.823a.534.534 0 0 0 .377.16.532.532 0 0 0 .373-.155l1.513-1.504a.534.534 0 0 0 0-.754zM22.28 6.233a1.067 1.067 0 1 1 .753 1.822h-.003a1.067 1.067 0 0 1-.747-1.823h-.002zm-1.256 3.505-.598 2.946-1.175-1.182 1.774-1.763zm-.605-.902-1.92 1.909-1.485-1.493 3.405-.415zM23.004 28.8a1.6 1.6 0 0 1 1.6 1.6v.533H1.137V30.4a1.6 1.6 0 0 1 1.6-1.6h20.267zm-7.467-2.133v1.067h-5.333v-1.067h5.333zM10.204 25.6v-4.053c0-1.294 1.196-2.347 2.667-2.347s2.667 1.053 2.667 2.347V25.6h-5.333zm6.4-1.696v-2.357c0-1.882-1.675-3.413-3.733-3.413A3.8 3.8 0 0 0 9.59 19.92 13.87 13.87 0 0 1 7.311 4.033l18.602 18.708a13.818 13.818 0 0 1-9.309 1.163zm11.289-.684L6.836 2.039l.755-.752 7.935 7.98c.004 0 .006.007.01.01l13.115 13.191-.757.752z"/>
        </symbol>
        <symbol id="icon-astronaut-1" viewBox="0 0 32 32">
            <path d="M31.974 4.524a.534.534 0 0 0-.43-.363l-1.91-.278-.855-1.731c-.179-.365-.777-.365-.956 0l-.855 1.731-1.91.278a.535.535 0 0 0-.296.91l1.383 1.348-.326 1.903c-.034.2.048.402.212.522a.53.53 0 0 0 .562.04l1.709-.899 1.709.899a.536.536 0 0 0 .775-.563l-.326-1.903 1.383-1.348a.536.536 0 0 0 .135-.547zm-2.463 1.327a.534.534 0 0 0-.153.472l.191 1.114-1-.526a.533.533 0 0 0-.498 0l-1.001.526.191-1.114a.534.534 0 0 0-.153-.472l-.81-.789 1.119-.163a.532.532 0 0 0 .402-.292l.5-1.013.5 1.013a.535.535 0 0 0 .402.292l1.119.163-.809.789zM26.133 20.522h-1.067v1.067h1.067v-1.067zM26.133 22.656h-1.067v1.067h1.067v-1.067zM27.2 21.589h-1.067v1.067H27.2v-1.067zM25.067 21.589H24v1.067h1.067v-1.067zM22.4 26.389h-1.067v1.067H22.4v-1.067zM22.4 28.522h-1.067v1.067H22.4v-1.067zM23.467 27.456H22.4v1.067h1.067v-1.067zM21.333 27.456h-1.067v1.067h1.067v-1.067zM16 24.256h-1.067v1.067H16v-1.067zM16 26.389h-1.067v1.067H16v-1.067zM17.067 25.322H16v1.067h1.067v-1.067zM14.933 25.322h-1.067v1.067h1.067v-1.067zM5.867 6.122H4.8v1.067h1.067V6.122zM5.867 8.255H4.8v1.067h1.067V8.255z"/>
            <path d="M6.933 7.189H5.866v1.067h1.067V7.189zM4.8 7.189H3.733v1.067H4.8V7.189z"/>
            <path d="M24.715 14.159a1.775 1.775 0 0 0-1.188-.705 1.778 1.778 0 0 0-1.34.352l-1.252.96-1.898 1.417-1.358-.541c2.421-1.086 4.114-3.508 4.114-6.32 0-3.823-3.123-6.933-6.961-6.933s-6.961 3.11-6.961 6.933a6.86 6.86 0 0 0 1.12 3.758l-2.764-.024h-.005c-.009 0-.015.004-.023.005a.515.515 0 0 0-.155.031l-.038.013c-.006.003-.013.003-.019.006l-3.233 1.596-.001.001-1.893.911a.397.397 0 0 0-.063.035 1.779 1.779 0 0 0-.598 2.295c.22.429.595.745 1.056.889a1.776 1.776 0 0 0 1.378-.128l1.388-.738 2.264-1.169 1.357-.008L2.2 22.211l-.002.001-1.339 1.333c-.316.315-.49.732-.49 1.178s.174.863.49 1.179c.325.323.752.485 1.179.485s.854-.162 1.18-.485l1.314-1.309 1.741-1.3.901.897-1.762 1.754-.002.001-1.339 1.333c-.316.315-.49.732-.49 1.178s.174.863.49 1.179c.325.323.753.485 1.18.485s.855-.162 1.18-.485l3.482-3.467.001-.002 1.01-1-.004-.004c.006-.006.015-.009.022-.015l5.166-5.658 3.471.494a.52.52 0 0 0 .262-.033c.018-.006.033-.015.05-.023.019-.01.039-.015.058-.027l3.213-2.133c.012-.008.018-.021.029-.029.013-.01.029-.014.041-.026l1.271-1.191c.662-.62.753-1.635.212-2.362zM2.13 17.77a.714.714 0 0 1-.558.052.717.717 0 0 1-.213-1.26l1.314-.632.449 1.313-.992.527zm3.498-1.828-1.548.8-.439-1.283 2.027-1.001-.04 1.484zm15.099-6.62a5.79 5.79 0 0 1-.599 2.559l-4.181-1.899a1.863 1.863 0 0 0-.788-1.388l1.464-4.86c2.378.756 4.105 2.974 4.105 5.588zm-11.789 0c0-3.235 2.644-5.867 5.894-5.867.253 0 .5.021.745.052l-1.432 4.754c-.019-.001-.037-.006-.057-.006-1.033 0-1.873.837-1.873 1.867s.84 1.867 1.873 1.867c.694 0 1.294-.383 1.618-.945l3.862 1.755a5.894 5.894 0 0 1-4.737 2.39c-3.25 0-5.894-2.632-5.894-5.867zm5.956.8c0 .441-.362.8-.806.8s-.806-.359-.806-.8c0-.441.362-.8.806-.8s.806.359.806.8zM2.465 25.146a.608.608 0 0 1-.854.001.592.592 0 0 1 0-.844l.962-.958.851.848-.959.955zm3.214 3.734a.608.608 0 0 1-.855.001.592.592 0 0 1 0-.844l.963-.959.852.848-.96.955zm3.481-3.469-.002.001-1.765 1.76-.852-.848 1.763-1.755.002-.001c.04-.04.065-.088.09-.135.007-.014.02-.026.026-.04.017-.041.019-.085.026-.129.003-.025.014-.047.014-.073 0-.036-.013-.07-.02-.106-.006-.032-.006-.065-.019-.095a.55.55 0 0 0-.091-.138c-.01-.012-.014-.027-.025-.038h-.001l-.001-.002-1.607-1.6c-.017-.017-.039-.024-.058-.038a.507.507 0 0 0-.087-.058.515.515 0 0 0-.093-.033.507.507 0 0 0-.103-.02.5.5 0 0 0-.095.005.53.53 0 0 0-.104.02.477.477 0 0 0-.094.045c-.02.011-.042.015-.061.029L4.23 23.486l-.901-.897 2.399-2.386 4.361 4.289-.928.919zm6.819-7.017c-.015-.002-.03.004-.045.003a.556.556 0 0 0-.3.075.492.492 0 0 0-.083.061c-.013.011-.028.017-.04.029l-4.698 5.146-4.328-4.257 2.833-2.818a.534.534 0 0 0-.379-.911v-.001l-2.219.013.028-1.607 3.104.027a6.947 6.947 0 0 0 4.981 2.101c.437 0 .864-.045 1.279-.123.04.032.079.065.13.085l2.41.96.152.758.178.885-3.003-.427zm4.041.178-.313-1.558 1.446-1.08.947 1.257-2.08 1.381zm3.754-2.831-.838.785-.931-1.236.831-.637a.735.735 0 0 1 .543-.143.718.718 0 0 1 .48.284.713.713 0 0 1-.085.947z"/>
            <path d="m13.602 18.544-2.143-2.133a.534.534 0 0 0-.753 0l-2.142 2.133a.537.537 0 0 0 0 .756l2.142 2.133a.536.536 0 0 0 .753 0l2.143-2.133a.535.535 0 0 0 0-.756zm-2.519 1.759-1.387-1.381 1.387-1.381 1.387 1.381-1.387 1.381zM17.164 5.071l-.258 1.036c.071.018 1.738.452 1.738 2.149h1.067c0-2.017-1.666-2.965-2.547-3.185zM19.711 9.322h-1.067v1.067h1.067V9.322z"/>
        </symbol>
        <symbol id="icon-clock" viewBox="0 0 31 32">
            <path d="M30.797 15.301C30.795 6.849 23.942-.002 15.489 0S.186 6.855.188 15.308a15.304 15.304 0 0 0 10.649 14.576.662.662 0 0 0 .529-.065.637.637 0 0 0 .283-.356l3.865-12.25a1.912 1.912 0 1 0-.84-3.635L9.568 8.471a.637.637 0 0 0-.902.902l5.103 5.109a1.876 1.876 0 0 0 .536 2.309l-3.683 11.673C3.344 25.783-.382 17.71 2.299 10.432S13.053-.572 20.331 2.109c7.278 2.681 11.004 10.754 8.323 18.032a14.042 14.042 0 0 1-7.462 7.973l-.398-1.874a.637.637 0 0 0-1.049-.344l-3.837 3.426a.637.637 0 0 0 .231 1.084l4.899 1.564a.638.638 0 0 0 .819-.74l-.391-1.839a15.255 15.255 0 0 0 9.329-14.089zm-15.305-.637a.638.638 0 1 1 0 1.277.638.638 0 0 1 0-1.277zm2.101 14.864 2.184-1.948.603 2.84-2.787-.892z"/>
        </symbol>
        <symbol id="icon-diagramma" viewBox="0 0 32 32">
            <path d="M1.599 28.291h25.587a1.6 1.6 0 0 0 1.599-1.599V24.56a1.6 1.6 0 0 0-1.599-1.599h-.533V9.668L29.681 6.8a1.608 1.608 0 1 0-.746-.763L26.654 8.2V6.97a1.6 1.6 0 0 0-1.599-1.599H3.733A1.6 1.6 0 0 0 2.134 6.97v15.992h-.533a1.6 1.6 0 0 0-1.599 1.599v2.132a1.6 1.6 0 0 0 1.599 1.599zM30.384 4.837a.533.533 0 1 1 0 1.067.533.533 0 0 1 0-1.067zM3.198 6.969c0-.294.239-.533.533-.533h21.322c.294 0 .533.239.533.533v2.239l-1.066 1.013V8.035a.533.533 0 0 0-.533-.533H4.797a.533.533 0 0 0-.533.533v13.326c0 .294.239.533.533.533h19.19a.533.533 0 0 0 .533-.533v-9.674l1.066-1.01v12.284H3.198V6.969zm4.798 6.93a1.598 1.598 0 1 0 1.107 2.749l1.853.93a.532.532 0 0 0 .636-.123l3.939-4.431 3.872 2.901a.533.533 0 0 0 .686-.039l3.365-3.188v8.131H5.33V8.569h18.124v2.66l-3.771 3.572-3.904-2.927a.533.533 0 0 0-.718.072l-3.993 4.493-1.493-.746c.011-.064.018-.129.02-.193a1.6 1.6 0 0 0-1.599-1.599zm.533 1.599a.533.533 0 1 1-1.067 0 .533.533 0 0 1 1.067 0zm3.198 8.529h5.331v.533a.533.533 0 0 1-.533.533h-4.264a.533.533 0 0 1-.533-.533v-.533zm-10.661.533c0-.294.239-.533.533-.533h9.062v.533a1.6 1.6 0 0 0 1.599 1.599h4.264a1.6 1.6 0 0 0 1.599-1.599v-.533h9.062c.294 0 .533.239.533.533v2.132a.533.533 0 0 1-.533.533H1.598a.533.533 0 0 1-.533-.533V24.56z"/>
        </symbol>
        <symbol id="icon-facbook" viewBox="0 0 32 32">
            <path d="M20.663 5.313h2.921V.225C23.08.156 21.347 0 19.328 0c-4.212 0-7.097 2.649-7.097 7.519V12H7.583v5.688h4.648V32h5.699V17.689h4.46l.708-5.688h-5.169V8.082c.001-1.644.444-2.769 2.735-2.769z"/>
        </symbol>
        <symbol id="icon-instagram-2" viewBox="0 0 32 32">
            <path d="M31.969 9.408c-.075-1.7-.35-2.869-.744-3.882a7.793 7.793 0 0 0-1.851-2.838A7.867 7.867 0 0 0 26.542.844C25.523.45 24.361.175 22.66.1 20.947.019 20.403 0 16.059 0s-4.888.019-6.595.094c-1.7.075-2.869.35-3.882.744a7.803 7.803 0 0 0-2.838 1.85A7.867 7.867 0 0 0 .9 5.52C.506 6.539.231 7.702.156 9.402c-.081 1.713-.1 2.257-.1 6.601s.019 4.888.094 6.595c.075 1.7.35 2.869.744 3.882a7.895 7.895 0 0 0 1.85 2.838 7.867 7.867 0 0 0 2.832 1.844c1.019.394 2.182.669 3.882.744 1.706.075 2.25.094 6.595.094s4.888-.019 6.595-.094c1.7-.075 2.869-.35 3.882-.744a8.181 8.181 0 0 0 4.682-4.682c.394-1.019.669-2.182.744-3.882.075-1.707.094-2.25.094-6.595s-.006-4.888-.081-6.595zm-2.882 13.065c-.069 1.563-.331 2.407-.55 2.969a5.31 5.31 0 0 1-3.038 3.038c-.563.219-1.413.481-2.969.55-1.688.075-2.194.094-6.464.094s-4.782-.019-6.464-.094c-1.563-.069-2.407-.331-2.969-.55a4.926 4.926 0 0 1-1.838-1.194 4.974 4.974 0 0 1-1.194-1.838c-.219-.563-.481-1.413-.55-2.969-.075-1.688-.094-2.194-.094-6.464s.019-4.782.094-6.464c.069-1.563.331-2.407.55-2.969a4.868 4.868 0 0 1 1.2-1.838A4.974 4.974 0 0 1 6.639 3.55c.563-.219 1.413-.481 2.969-.55 1.688-.075 2.194-.094 6.464-.094 4.276 0 4.782.019 6.464.094 1.563.069 2.407.331 2.969.55a4.914 4.914 0 0 1 1.838 1.194 4.974 4.974 0 0 1 1.194 1.838c.219.563.481 1.413.55 2.969.075 1.688.094 2.194.094 6.464s-.019 4.77-.094 6.458z"/>
            <path d="M16.059 7.783c-4.538 0-8.22 3.682-8.22 8.22s3.682 8.22 8.22 8.22c4.539 0 8.22-3.682 8.22-8.22s-3.682-8.22-8.22-8.22zm0 13.552a5.333 5.333 0 0 1 0-10.664 5.332 5.332 0 0 1 0 10.664zM26.524 7.458a1.919 1.919 0 1 1-3.838 0 1.919 1.919 0 0 1 3.838 0z"/>
        </symbol>
        <symbol id="icon-linkedin-1" viewBox="0 0 32 32">
            <path d="M31.992 32v-.001H32V20.263c0-5.741-1.236-10.164-7.948-10.164-3.227 0-5.392 1.771-6.276 3.449h-.093v-2.913h-6.364v21.364h6.627V21.42c0-2.785.528-5.479 3.977-5.479 3.399 0 3.449 3.179 3.449 5.657v10.401h6.62zM.528 10.636h6.635V32H.528V10.636zM3.843 0C1.722 0 0 1.721 0 3.843s1.721 3.879 3.843 3.879c2.121 0 3.843-1.757 3.843-3.879A3.846 3.846 0 0 0 3.843 0z"/>
        </symbol>
        <symbol id="icon-twitter-1" viewBox="0 0 32 32">
            <path d="M32 6.078c-1.19.522-2.458.868-3.78 1.036a6.523 6.523 0 0 0 2.886-3.626 13.11 13.11 0 0 1-4.16 1.588A6.574 6.574 0 0 0 22.154 3c-3.632 0-6.556 2.948-6.556 6.562 0 .52.044 1.02.152 1.496-5.454-.266-10.28-2.88-13.522-6.862a6.605 6.605 0 0 0-.898 3.316 6.57 6.57 0 0 0 2.914 5.452 6.479 6.479 0 0 1-2.964-.808v.072c0 3.188 2.274 5.836 5.256 6.446a6.548 6.548 0 0 1-1.72.216 5.8 5.8 0 0 1-1.242-.112c.85 2.598 3.262 4.508 6.13 4.57a13.182 13.182 0 0 1-8.134 2.798c-.538 0-1.054-.024-1.57-.09A18.469 18.469 0 0 0 10.064 29c12.072 0 18.672-10 18.672-18.668 0-.29-.01-.57-.024-.848A13.087 13.087 0 0 0 32 6.078z"/>
        </symbol>
    </defs>
</svg>